<svg xmlns="http://www.w3.org/2000/svg" width="1200" height="630" viewBox="0 0 1200 630"><rect width="1200" height="630" fill="#09090b"/><defs><radialGradient id="ambient-glow" cx="80%" cy="20%" r="60%"><stop offset="0%" stop-color="#bd34fe" stop-opacity=".25"/><stop offset="100%" stop-color="#09090b" stop-opacity="0"/></radialGradient><linearGradient id="text-gradient" x1="0%" x2="100%" y1="0%" y2="0%"><stop offset="0%" stop-color="#41d1ff"/><stop offset="50%" stop-color="#bd34fe"/><stop offset="100%" stop-color="#ffa800"/></linearGradient><filter id="glow"><feGaussianBlur result="coloredBlur" stdDeviation="15"/><feMerge><feMergeNode in="coloredBlur"/><feMergeNode in="SourceGraphic"/></feMerge></filter></defs><rect width="1200" height="630" fill="url(#ambient-glow)"/><g opacity=".03"><path stroke="#fff" stroke-width="1" d="M 0,30 L 1200,30 M 0,60 L 1200,60 M 0,90 L 1200,90 M 0,120 L 1200,120 M 0,150 L 1200,150 M 0,180 L 1200,180 M 0,210 L 1200,210 M 0,240 L 1200,240 M 0,270 L 1200,270 M 0,300 L 1200,300 M 0,330 L 1200,330 M 0,360 L 1200,360 M 0,390 L 1200,390 M 0,420 L 1200,420 M 0,450 L 1200,450 M 0,480 L 1200,480 M 0,510 L 1200,510 M 0,540 L 1200,540 M 0,570 L 1200,570 M 0,600 L 1200,600"/><path stroke="#fff" stroke-width="1" d="M 30,0 L 30,630 M 60,0 L 60,630 M 90,0 L 90,630 M 120,0 L 120,630 M 150,0 L 150,630 M 180,0 L 180,630 M 210,0 L 210,630 M 240,0 L 240,630 M 270,0 L 270,630 M 30,0 L 300,630 M 300,0 L 300,630 M 330,0 L 330,630 M 360,0 L 360,630 M 390,0 L 390,630 M 420,0 L 420,630 M 450,0 L 450,630 M 480,0 L 480,630 M 510,0 L 510,630 M 540,0 L 540,630 M 570,0 L 570,630 M 600,0 L 600,630 M 630,0 L 630,630 M 660,0 L 660,630 M 690,0 L 690,630 M 720,0 L 720,630 M 750,0 L 750,630 M 780,0 L 780,630 M 810,0 L 810,630 M 840,0 L 840,630 M 870,0 L 870,630 M 900,0 L 900,630 M 930,0 L 930,630 M 960,0 L 960,630 M 990,0 L 990,630 M 1020,0 L 1020,630 M 1050,0 L 1050,630 M 1080,0 L 1080,630 M 1110,0 L 1110,630 M 1140,0 L 1140,630 M 1170,0 L 1170,630"/></g><rect width="1160" height="590" x="20" y="20" fill="none" stroke="#18181b" stroke-width="2" rx="20"/><rect width="1156" height="586" x="22" y="22" fill="none" stroke="#27272a" stroke-width="1" rx="18"/><circle cx="100" cy="100" r="150" fill="#bd34fe" filter="url(#glow)" opacity=".1"/><text x="100" y="195" fill="#bd34fe" font-family="system-ui, -apple-system, sans-serif" font-size="28" font-weight="900" letter-spacing="4">AREA44</text><text x="100" y="230" fill="#a1a1aa" font-family="system-ui, -apple-system, sans-serif" font-size="16" font-weight="400" letter-spacing="2">OPEN GRAPH PLAYGROUND</text><text x="100" y="380" fill="url(#text-gradient)" font-family="system-ui, -apple-system, sans-serif" font-size="80" font-weight="800" letter-spacing="-2">OG Images Coral</text><text x="100" y="445" fill="#e4e4e7" font-family="system-ui, -apple-system, sans-serif" font-size="24" font-weight="500" letter-spacing=".5">Beautiful In-Browser Open Graph Image Templates</text><g transform="translate(100, 510)"><rect width="160" height="38" x="0" y="0" fill="#18181b" stroke="#27272a" stroke-width="1" rx="10"/><text x="80" y="24" fill="#41d1ff" font-family="system-ui, -apple-system, sans-serif" font-size="13" font-weight="700" text-anchor="middle">SATORI ENGINE</text><rect width="160" height="38" x="175" y="0" fill="#18181b" stroke="#27272a" stroke-width="1" rx="10"/><text x="255" y="24" fill="#bd34fe" font-family="system-ui, -apple-system, sans-serif" font-size="13" font-weight="700" text-anchor="middle">TAILWIND CSS</text><rect width="160" height="38" x="350" y="0" fill="#18181b" stroke="#27272a" stroke-width="1" rx="10"/><text x="430" y="24" fill="#ffa800" font-family="system-ui, -apple-system, sans-serif" font-size="13" font-weight="700" text-anchor="middle">REACT 19 &amp; VITE 8</text></g><g transform="translate(1000, 510)"><circle cx="15" cy="18" r="6" fill="#10b981"/><circle cx="15" cy="18" r="10" fill="none" stroke="#10b981" stroke-width="1.5" opacity=".5"/><text x="35" y="23" fill="#10b981" font-family="system-ui, -apple-system, sans-serif" font-size="13" font-weight="700" letter-spacing="1">LIVE PREVIEW</text></g></svg>