<svg xmlns="http://www.w3.org/2000/svg" viewBox="0 0 1200 630" width="1200" height="630">
  <!-- Dark background -->
  <rect width="1200" height="630" fill="#09090b" />

  <!-- Ambient glowing gradient in the top-right -->
  <defs>
    <radialGradient id="ambient-glow" cx="80%" cy="20%" r="60%">
      <stop offset="0%" stop-color="#863BFF" stop-opacity="0.2" />
      <stop offset="100%" stop-color="#09090b" stop-opacity="0" />
    </radialGradient>
    <linearGradient id="coral-gradient" x1="0%" y1="0%" x2="100%" y2="100%">
      <stop offset="0%" stop-color="#ff7f50" />
      <stop offset="50%" stop-color="#f43f5e" />
      <stop offset="100%" stop-color="#e11d48" />
    </linearGradient>
    <linearGradient id="text-gradient" x1="0%" y1="0%" x2="100%" y2="0%">
      <stop offset="0%" stop-color="#ff7f50" />
      <stop offset="40%" stop-color="#fb923c" />
      <stop offset="100%" stop-color="#f43f5e" />
    </linearGradient>
    <filter id="glow">
      <feGaussianBlur stdDeviation="15" result="coloredBlur"/>
      <feMerge>
        <feMergeNode in="coloredBlur"/>
        <feMergeNode in="SourceGraphic"/>
      </feMerge>
    </filter>
  </defs>

  <rect width="1200" height="630" fill="url(#ambient-glow)" />

  <!-- Grid patterns -->
  <g opacity="0.03">
    <path d="M 0,30 L 1200,30 M 0,60 L 1200,60 M 0,90 L 1200,90 M 0,120 L 1200,120 M 0,150 L 1200,150 M 0,180 L 1200,180 M 0,210 L 1200,210 M 0,240 L 1200,240 M 0,270 L 1200,270 M 0,300 L 1200,300 M 0,330 L 1200,330 M 0,360 L 1200,360 M 0,390 L 1200,390 M 0,420 L 1200,420 M 0,450 L 1200,450 M 0,480 L 1200,480 M 0,510 L 1200,510 M 0,540 L 1200,540 M 0,570 L 1200,570 M 0,600 L 1200,600" stroke="#ffffff" stroke-width="1" />
    <path d="M 30,0 L 30,630 M 60,0 L 60,630 M 90,0 L 90,630 M 120,0 L 120,630 M 150,0 L 150,630 M 180,0 L 180,630 M 210,0 L 210,630 M 240,0 L 240,630 M 270,0 L 270,630 M 30,0 L 300,630 M 300,0 L 300,630 M 330,0 L 330,630 M 360,0 L 360,630 M 390,0 L 390,630 M 420,0 L 420,630 M 450,0 L 450,630 M 480,0 L 480,630 M 510,0 L 510,630 M 540,0 L 540,630 M 570,0 L 570,630 M 600,0 L 600,630 M 630,0 L 630,630 M 660,0 L 660,630 M 690,0 L 690,630 M 720,0 L 720,630 M 750,0 L 750,630 M 780,0 L 780,630 M 810,0 L 810,630 M 840,0 L 840,630 M 870,0 L 870,630 M 900,0 L 900,630 M 930,0 L 930,630 M 960,0 L 960,630 M 990,0 L 990,630 M 1020,0 L 1020,630 M 1050,0 L 1050,630 M 1080,0 L 1080,630 M 1110,0 L 1110,630 M 1140,0 L 1140,630 M 1170,0 L 1170,630" stroke="#ffffff" stroke-width="1" />
  </g>

  <!-- Dual Borders -->
  <rect x="20" y="20" width="1160" height="590" rx="20" fill="none" stroke="#18181b" stroke-width="2" />
  <rect x="22" y="22" width="1156" height="586" rx="18" fill="none" stroke="#27272a" stroke-width="1" />

  <!-- Top-left glowing accent -->
  <circle cx="100" cy="100" r="150" fill="#863BFF" opacity="0.1" filter="url(#glow)" />

  <!-- Vite 8 Logo Icon Group -->
  <g transform="translate(100, 155)">
    <!-- Ambient glow behind Vite logo -->
    <circle cx="55" cy="35" r="45" fill="#863BFF" opacity="0.3" filter="url(#glow)" />

    <!-- Vite 8 Logo SVG scaled to ~115x70 -->
    <g transform="scale(5.0)">
      <path d="M20.7482 0H18.8887C21.641 3.93959 21.6571 10.0462 18.8887 14H20.7482C23.516 10.0462 23.4999 3.93959 20.7482 0Z" fill="white"/>
      <path d="M2.07027 3.05176e-05C-0.682028 3.93963 -0.698142 10.0463 2.07027 14H3.92985C1.16208 10.0463 1.1782 3.93963 3.92985 3.05176e-05H2.07027Z" fill="white"/>
      <path d="M12.0135 13.6771C11.815 13.9297 11.4089 13.7892 11.4089 13.4682V10.3853C11.4089 10.0114 11.106 9.70846 10.7321 9.70846H7.32818C7.05295 9.70846 6.89245 9.39713 7.05295 9.17347L9.29089 6.04023C9.61124 5.59225 9.29089 4.9696 8.73979 4.9696H4.62036C4.34513 4.9696 4.18463 4.65828 4.34512 4.43461L7.24632 0.372548C7.31013 0.283598 7.41262 0.230743 7.52155 0.230743H16.1671C16.4424 0.230743 16.6029 0.542069 16.4424 0.765734L14.2044 3.89897C13.8841 4.34695 14.2044 4.9696 14.7555 4.9696H18.1595C18.4418 4.9696 18.6004 5.29511 18.4257 5.51748L12.0142 13.6777L12.0135 13.6771Z" fill="#863BFF"/>
      <mask id="og-v8-mask" style="mask-type:alpha" maskUnits="userSpaceOnUse" x="4" y="0" width="15" height="14">
        <path d="M11.9823 13.677C11.7838 13.9296 11.3777 13.7891 11.3777 13.4681V10.3852C11.3777 10.0113 11.0747 9.70837 10.7009 9.70837H7.29693C7.0217 9.70837 6.8612 9.39704 7.0217 9.17338L9.25964 6.04014C9.57999 5.59216 9.25964 4.96951 8.70854 4.96951H4.58911C4.31388 4.96951 4.15338 4.65818 4.31387 4.43452L7.21507 0.372457C7.27888 0.283506 7.38137 0.230652 7.4903 0.230652H16.1359C16.4111 0.230652 16.5716 0.541978 16.4111 0.765643L14.1732 3.89888C13.8528 4.34686 14.1732 4.96951 14.7243 4.96951H18.1282C18.4106 4.96951 18.5691 5.29502 18.3944 5.51739L11.9829 13.6776L11.9823 13.677Z" fill="black"/>
      </mask>
      <g mask="url(#og-v8-mask)">
        <g filter="url(#og-v8-f0)">
          <ellipse cx="1.6481" cy="4.39979" rx="1.6481" ry="4.39979" transform="matrix(0.00324134 0.999995 0.999995 -0.00324134 2.91309 9.66077)" fill="#EDE6FF"/>
        </g>
        <g filter="url(#og-v8-f1)">
          <ellipse cx="3.11172" cy="8.9321" rx="3.11172" ry="8.9321" transform="matrix(0.00324134 0.999995 0.999995 -0.00324134 -7.51758 2.58936)" fill="#EDE6FF"/>
        </g>
        <g filter="url(#og-v8-f2)">
          <ellipse cx="1.6481" cy="9.12221" rx="1.6481" ry="9.12221" transform="matrix(0.00324134 0.999995 0.999995 -0.00324134 -7.8584 3.61816)" fill="#7E14FF"/>
        </g>
        <g filter="url(#og-v8-f3)">
          <ellipse cx="1.6481" cy="9.15566" rx="1.6481" ry="9.15566" transform="matrix(0.00324134 0.999995 0.999995 -0.00324134 -6.4834 9.00391)" fill="#7E14FF"/>
        </g>
        <g filter="url(#og-v8-f4)">
          <ellipse cx="1.6481" cy="9.15566" rx="1.6481" ry="9.15566" transform="matrix(0.00324134 0.999995 0.999995 -0.00324134 -6.02441 9.34766)" fill="#7E14FF"/>
        </g>
        <g filter="url(#og-v8-f5)">
          <ellipse cx="4.21045" cy="6.60625" rx="4.21045" ry="6.60625" transform="matrix(0.0584509 -0.99829 -0.99829 -0.0584509 26.4971 8.26871)" fill="#EDE6FF"/>
        </g>
        <g filter="url(#og-v8-f6)">
          <ellipse cx="1.03839" cy="6.43346" rx="1.03839" ry="6.43346" transform="matrix(-0.0172986 -0.99985 -0.99985 0.0172986 26.9297 5.63535)" fill="#7E14FF"/>
        </g>
        <g filter="url(#og-v8-f7)">
          <ellipse cx="1.03839" cy="6.43346" rx="1.03839" ry="6.43346" transform="matrix(-0.0172986 -0.99985 -0.99985 0.0172986 26.9297 5.63535)" fill="#7E14FF"/>
        </g>
        <g filter="url(#og-v8-f8)">
          <ellipse cx="4.36576" cy="2.91514" rx="1.31855" ry="8.70955" transform="rotate(39.5103 4.36576 2.91514)" fill="#7E14FF"/>
        </g>
        <g filter="url(#og-v8-f9)">
          <ellipse cx="18.4697" cy="-1.59207" rx="1.31855" ry="8.70955" transform="rotate(37.8923 18.4697 -1.59207)" fill="#7E14FF"/>
        </g>
        <g filter="url(#og-v8-f10)">
          <ellipse cx="16.6417" cy="2.12577" rx="1.78679" ry="2.89199" transform="rotate(37.8923 16.6417 2.12577)" fill="#47BFFF"/>
        </g>
        <g filter="url(#og-v8-f11)">
          <ellipse cx="3.68841" cy="11.7003" rx="1.31855" ry="8.70955" transform="rotate(37.8923 3.68841 11.7003)" fill="#7E14FF"/>
        </g>
        <g filter="url(#og-v8-f12)">
          <ellipse cx="3.68841" cy="11.7003" rx="1.31855" ry="8.70955" transform="rotate(37.8923 3.68841 11.7003)" fill="#7E14FF"/>
        </g>
        <g filter="url(#og-v8-f13)">
          <ellipse cx="14.9179" cy="9.17936" rx="1.31855" ry="8.70955" transform="rotate(37.8923 14.9179 9.17936)" fill="#7E14FF"/>
        </g>
        <g filter="url(#og-v8-f14)">
          <ellipse cx="15.7453" cy="9.92533" rx="1.78679" ry="4.57726" transform="rotate(37.8923 15.7453 9.92533)" fill="#47BFFF"/>
        </g>
      </g>
      <defs>
        <filter id="og-v8-f0" x="-1.66562" y="5.06287" width="17.967" height="12.4635" filterUnits="userSpaceOnUse" color-interpolation-filters="sRGB">
          <feFlood flood-opacity="0" result="BackgroundImageFix"/>
          <feBlend mode="normal" in="SourceGraphic" in2="BackgroundImageFix" result="shape"/>
          <feGaussianBlur stdDeviation="2.29179" result="effect1_foregroundBlur_127_17274"/>
        </filter>
        <filter id="og-v8-f1" x="-12.0914" y="-2.02332" width="27.0314" height="15.3908" filterUnits="userSpaceOnUse" color-interpolation-filters="sRGB">
          <feFlood flood-opacity="0" result="BackgroundImageFix"/>
          <feBlend mode="normal" in="SourceGraphic" in2="BackgroundImageFix" result="shape"/>
          <feGaussianBlur stdDeviation="2.29179" result="effect1_foregroundBlur_127_17274"/>
        </filter>
        <filter id="og-v8-f2" x="-10.6037" y="0.838165" width="23.7454" height="8.79703" filterUnits="userSpaceOnUse" color-interpolation-filters="sRGB">
          <feFlood flood-opacity="0" result="BackgroundImageFix"/>
          <feBlend mode="normal" in="SourceGraphic" in2="BackgroundImageFix" result="shape"/>
          <feGaussianBlur stdDeviation="1.37508" result="effect1_foregroundBlur_127_17274"/>
        </filter>
        <filter id="og-v8-f3" x="-9.22867" y="6.22382" width="23.8118" height="8.79703" filterUnits="userSpaceOnUse" color-interpolation-filters="sRGB">
          <feFlood flood-opacity="0" result="BackgroundImageFix"/>
          <feBlend mode="normal" in="SourceGraphic" in2="BackgroundImageFix" result="shape"/>
          <feGaussianBlur stdDeviation="1.37508" result="effect1_foregroundBlur_127_17274"/>
        </filter>
        <filter id="og-v8-f4" x="-8.76968" y="6.56757" width="23.8118" height="8.79703" filterUnits="userSpaceOnUse" color-interpolation-filters="sRGB">
          <feFlood flood-opacity="0" result="BackgroundImageFix"/>
          <feBlend mode="normal" in="SourceGraphic" in2="BackgroundImageFix" result="shape"/>
          <feGaussianBlur stdDeviation="1.37508" result="effect1_foregroundBlur_127_17274"/>
        </filter>
        <filter id="og-v8-f5" x="8.96524" y="-5.12549" width="22.3664" height="17.6096" filterUnits="userSpaceOnUse" color-interpolation-filters="sRGB">
          <feFlood flood-opacity="0" result="BackgroundImageFix"/>
          <feBlend mode="normal" in="SourceGraphic" in2="BackgroundImageFix" result="shape"/>
          <feGaussianBlur stdDeviation="2.29179" result="effect1_foregroundBlur_127_17274"/>
        </filter>
        <filter id="og-v8-f6" x="11.2967" y="0.91397" width="18.3655" height="7.58884" filterUnits="userSpaceOnUse" color-interpolation-filters="sRGB">
          <feFlood flood-opacity="0" result="BackgroundImageFix"/>
          <feBlend mode="normal" in="SourceGraphic" in2="BackgroundImageFix" result="shape"/>
          <feGaussianBlur stdDeviation="1.37508" result="effect1_foregroundBlur_127_17274"/>
        </filter>
        <filter id="og-v8-f7" x="11.2967" y="0.91397" width="18.3655" height="7.58884" filterUnits="userSpaceOnUse" color-interpolation-filters="sRGB">
          <feFlood flood-opacity="0" result="BackgroundImageFix"/>
          <feBlend mode="normal" in="SourceGraphic" in2="BackgroundImageFix" result="shape"/>
          <feGaussianBlur stdDeviation="1.37508" result="effect1_foregroundBlur_127_17274"/>
        </filter>
        <filter id="og-v8-f8" x="-4.01871" y="-6.60739" width="16.7698" height="19.045" filterUnits="userSpaceOnUse" color-interpolation-filters="sRGB">
          <feFlood flood-opacity="0" result="BackgroundImageFix"/>
          <feBlend mode="normal" in="SourceGraphic" in2="BackgroundImageFix" result="shape"/>
          <feGaussianBlur stdDeviation="1.37508" result="effect1_foregroundBlur_127_17274"/>
        </filter>
        <filter id="og-v8-f9" x="10.2694" y="-11.2637" width="16.4007" height="19.3433" filterUnits="userSpaceOnUse" color-interpolation-filters="sRGB">
          <feFlood flood-opacity="0" result="BackgroundImageFix"/>
          <feBlend mode="normal" in="SourceGraphic" in2="BackgroundImageFix" result="shape"/>
          <feGaussianBlur stdDeviation="1.37508" result="effect1_foregroundBlur_127_17274"/>
        </filter>
        <filter id="og-v8-f10" x="11.6239" y="-3.15738" width="10.0355" height="10.5663" filterUnits="userSpaceOnUse" color-interpolation-filters="sRGB">
          <feFlood flood-opacity="0" result="BackgroundImageFix"/>
          <feBlend mode="normal" in="SourceGraphic" in2="BackgroundImageFix" result="shape"/>
          <feGaussianBlur stdDeviation="1.37508" result="effect1_foregroundBlur_127_17274"/>
        </filter>
        <filter id="og-v8-f11" x="-4.51187" y="2.02869" width="16.4007" height="19.3433" filterUnits="userSpaceOnUse" color-interpolation-filters="sRGB">
          <feFlood flood-opacity="0" result="BackgroundImageFix"/>
          <feBlend mode="normal" in="SourceGraphic" in2="BackgroundImageFix" result="shape"/>
          <feGaussianBlur stdDeviation="1.37508" result="effect1_foregroundBlur_127_17274"/>
        </filter>
        <filter id="og-v8-f12" x="-4.51187" y="2.02869" width="16.4007" height="19.3433" filterUnits="userSpaceOnUse" color-interpolation-filters="sRGB">
          <feFlood flood-opacity="0" result="BackgroundImageFix"/>
          <feBlend mode="normal" in="SourceGraphic" in2="BackgroundImageFix" result="shape"/>
          <feGaussianBlur stdDeviation="1.37508" result="effect1_foregroundBlur_127_17274"/>
        </filter>
        <filter id="og-v8-f13" x="6.71762" y="-0.49228" width="16.4007" height="19.3433" filterUnits="userSpaceOnUse" color-interpolation-filters="sRGB">
          <feFlood flood-opacity="0" result="BackgroundImageFix"/>
          <feBlend mode="normal" in="SourceGraphic" in2="BackgroundImageFix" result="shape"/>
          <feGaussianBlur stdDeviation="1.37508" result="effect1_foregroundBlur_127_17274"/>
        </filter>
        <filter id="og-v8-f14" x="9.84946" y="3.39893" width="11.7913" height="13.0528" filterUnits="userSpaceOnUse" color-interpolation-filters="sRGB">
          <feFlood flood-opacity="0" result="BackgroundImageFix"/>
          <feBlend mode="normal" in="SourceGraphic" in2="BackgroundImageFix" result="shape"/>
          <feGaussianBlur stdDeviation="1.37508" result="effect1_foregroundBlur_127_17274"/>
        </filter>
      </defs>
    </g>
  </g>

  <!-- Brand Text -->
  <text x="235" y="190" font-family="system-ui, -apple-system, sans-serif" font-weight="900" font-size="28" fill="#ff7f50" letter-spacing="4">AREA44</text>
  <text x="235" y="225" font-family="system-ui, -apple-system, sans-serif" font-weight="400" font-size="16" fill="#a1a1aa" letter-spacing="2">OPEN GRAPH PLAYGROUND</text>

  <!-- Large Title -->
  <text x="100" y="380" font-family="system-ui, -apple-system, sans-serif" font-weight="800" font-size="80" fill="url(#text-gradient)" letter-spacing="-2">OG Images Coral</text>

  <!-- Subtitle -->
  <text x="100" y="445" font-family="system-ui, -apple-system, sans-serif" font-weight="500" font-size="24" fill="#e4e4e7" letter-spacing="0.5">Beautiful In-Browser Open Graph Image Templates</text>

  <!-- Meta details / Tags at bottom -->
  <g transform="translate(100, 510)">
    <!-- Tag 1 -->
    <rect x="0" y="0" width="160" height="38" rx="10" fill="#18181b" stroke="#27272a" stroke-width="1" />
    <text x="80" y="24" font-family="system-ui, -apple-system, sans-serif" font-weight="700" font-size="13" fill="#fb923c" text-anchor="middle">SATORI ENGINE</text>

    <!-- Tag 2 -->
    <rect x="175" y="0" width="160" height="38" rx="10" fill="#18181b" stroke="#27272a" stroke-width="1" />
    <text x="255" y="24" font-family="system-ui, -apple-system, sans-serif" font-weight="700" font-size="13" fill="#f43f5e" text-anchor="middle">TAILWIND CSS</text>

    <!-- Tag 3 -->
    <rect x="350" y="0" width="160" height="38" rx="10" fill="#18181b" stroke="#27272a" stroke-width="1" />
    <text x="430" y="24" font-family="system-ui, -apple-system, sans-serif" font-weight="700" font-size="13" fill="#a1a1aa" text-anchor="middle">REACT 19 &amp; VITE 8</text>
  </g>

  <!-- Live Status Pulse Badge -->
  <g transform="translate(1000, 510)">
    <circle cx="15" cy="18" r="6" fill="#10b981" />
    <circle cx="15" cy="18" r="10" fill="none" stroke="#10b981" stroke-width="1.5" opacity="0.5" />
    <text x="35" y="23" font-family="system-ui, -apple-system, sans-serif" font-weight="700" font-size="13" fill="#10b981" letter-spacing="1">LIVE PREVIEW</text>
  </g>
</svg>
